<svg width="189" height="63" viewBox="0 0 189 63" fill="none" xmlns="http://www.w3.org/2000/svg">
<g clip-path="url(#clip0_710_48)">
<g clip-path="url(#clip1_710_48)">
<path d="M39.8489 46.1612C32.5297 46.1612 26.837 49.6185 26.837 54.0637C26.837 58.5088 32.5297 61.9661 39.8489 61.9661C47.1681 61.9661 52.8609 58.5088 52.8609 54.0637C52.8609 49.6185 47.1681 46.1612 39.8489 46.1612ZM117.107 1.21594H110.601V10.8471H134.999L117.107 1.21594ZM0.81317 55.5454H17.0781C17.0781 55.5454 17.8913 40.7283 41.4754 40.7283C58.9602 40.7283 61.8065 55.5454 61.8065 55.5454H102.469V1.21594H0L0.81317 55.5454ZM154.516 46.1612C147.197 46.1612 141.505 49.6185 141.505 54.0637C141.505 58.5088 147.197 61.9661 154.516 61.9661C161.836 61.9661 167.528 58.5088 167.528 54.0637C167.528 49.6185 161.429 46.1612 154.516 46.1612ZM139.065 13.5636H110.601V55.5454H134.999C134.999 55.5454 131.746 43.1978 155.33 43.1978C173.221 43.1978 172.814 55.5454 172.814 55.5454H187.86L188.673 37.024L139.065 13.5636ZM134.999 45.6673H118.734V40.7283H134.999V45.6673ZM133.372 36.777L117.107 30.8502V17.0209H133.372L175.661 36.777H133.372Z" fill="white" fill-opacity="0.4"/>
</g>
</g>
<defs>
<clipPath id="clip0_710_48">
<rect width="189" height="62" fill="white" transform="translate(0 0.419983)"/>
</clipPath>
<clipPath id="clip1_710_48">
<rect width="189" height="62" fill="white" transform="translate(0 0.419983)"/>
</clipPath>
</defs>
</svg>
