<svg width="80" height="81" viewBox="0 0 80 81" fill="none" xmlns="http://www.w3.org/2000/svg">
<g clip-path="url(#clip0_710_11)">
<g clip-path="url(#clip1_710_11)">
<mask id="mask0_710_11" style="mask-type:luminance" maskUnits="userSpaceOnUse" x="0" y="0" width="80" height="81">
<path d="M80 0.589996H0V80.59H80V0.589996Z" fill="white"/>
</mask>
<g mask="url(#mask0_710_11)">
<path d="M57.2204 25.9632L46.6873 36.4964L50.7656 40.5747L61.2987 30.0415L57.2204 25.9632Z" fill="#66C05D"/>
<path d="M35.9094 47.2965L25.3762 57.8297L29.4545 61.908L39.9877 51.3748L35.9094 47.2965Z" fill="#66C05D"/>
<path d="M50.5173 19.296L39.9842 29.8291L44.0625 33.9074L54.5956 23.3743L50.5173 19.296Z" fill="#66C05D"/>
<path d="M29.2355 40.6006L18.7023 51.1337L22.7806 55.212L33.3138 44.6789L29.2355 40.6006Z" fill="#66C05D"/>
<path d="M22.7576 25.9629L18.6793 30.0412L29.2124 40.5744L33.2907 36.4961L22.7576 25.9629Z" fill="#66C05D"/>
<path d="M29.454 19.289L25.3757 23.3673L35.9089 33.9004L39.9872 29.8221L29.454 19.289Z" fill="#66C05D"/>
<path d="M50.7592 40.5709L46.6809 44.6492L57.2141 55.1823L61.2924 51.104L50.7592 40.5709Z" fill="#66C05D"/>
<path d="M44.092 47.2741L40.0137 51.3524L50.5468 61.8855L54.6251 57.8072L44.092 47.2741Z" fill="#66C05D"/>
<path d="M54.6058 65.9842L50.5394 61.9178L40 72.4572L29.4606 61.9178L25.3942 65.9842L40 80.59L54.6058 65.9842Z" fill="#EFEFEF"/>
<path d="M18.6722 30.0506L14.6058 25.9842L0 40.59L14.6058 55.1958L18.6722 51.1294L8.13278 40.59L18.6722 30.0506Z" fill="#EFEFEF"/>
<path d="M65.3942 25.9842L61.3278 30.0506L71.8672 40.59L61.3278 51.1294L65.3942 55.1958L80 40.59L65.3942 25.9842Z" fill="#EFEFEF"/>
<path d="M50.5394 19.2622L54.6058 15.1958L40 0.589996L25.3942 15.1958L29.4606 19.2622L40 8.72278L50.5394 19.2622Z" fill="#EFEFEF"/>
</g>
</g>
</g>
<defs>
<clipPath id="clip0_710_11">
<rect width="80" height="80" fill="white" transform="translate(0 0.589996)"/>
</clipPath>
<clipPath id="clip1_710_11">
<rect width="80" height="80" fill="white" transform="translate(0 0.589996)"/>
</clipPath>
</defs>
</svg>
